<?xml version="1.0" encoding="utf-8"?>
<!-- Generator: Adobe Illustrator 21.0.0, SVG Export Plug-In . SVG Version: 6.00 Build 0)  -->
<svg version="1.1" id="Layer_1" xmlns="http://www.w3.org/2000/svg" xmlns:xlink="http://www.w3.org/1999/xlink" x="0px" y="0px"
	 viewBox="0 0 100 100" style="enable-background:new 0 0 100 100;" xml:space="preserve">
<g>
	<path d="M64.7,56.4c-0.8-0.6-1.7-0.6-2.5,0c-1.3,0.9-2.6,1.8-3.8,2.8c-1.3,1.1-2,1.3-3.5,0.4c-1.3-0.8-2.5-1.6-3.7-2.5
		c-3.9-2.9-7-6.5-9.5-10.6c-1.2-2-1-3.2,0.7-4.8c0.5-0.4,1-0.9,1.4-1.3c1.1-1.1,1.3-2.4,0.8-3.8c-0.3-0.7-0.6-1.4-1.1-2
		c-0.9-1.2-1.9-2.4-3-3.4c-1.8-1.7-3.8-3.2-6.2-4c-2.3-0.7-4.3,0-5.6,2.1c-0.4,0.7-0.8,1.5-1,2.2c-1.5,5.1-1.1,10.1,1.1,14.9
		c1.7,3.9,4.1,7.4,6.8,10.8C40.8,63.6,47,68.7,54.8,72c3,1.2,6.1,2.2,9.4,2.2c1.8,0,3.6-0.3,5.3-1c4-1.8,6.3-6.2,2.5-10.5
		C69.8,60.2,67.4,58.2,64.7,56.4z"/>
	<path d="M50.3,5C25.3,5,4.8,25.4,4.8,50.5S25.3,96,50.3,96s45.5-20.4,45.5-45.5S75.4,5,50.3,5z M50.3,93c-23.4,0-42.5-19-42.5-42.5
		S26.9,8,50.3,8s42.5,19,42.5,42.5S73.8,93,50.3,93z"/>
</g>
</svg>
